<?xml version="1.0" standalone="no"?>
<!DOCTYPE svg PUBLIC "-//W3C//DTD SVG 20010904//EN"
 "http://www.w3.org/TR/2001/REC-SVG-20010904/DTD/svg10.dtd">
<svg version="1.0" xmlns="http://www.w3.org/2000/svg"
 width="600" height="300" viewBox="0 0 1152.000000 648.000000"
 preserveAspectRatio="xMidYMid meet">

<g transform="translate(0.000000,648.000000) scale(0.100000,-0.100000)"
fill="#000000" stroke="none">
<path d="M1400 6444 c-108 -23 -222 -86 -305 -168 -132 -130 -192 -284 -182
-466 3 -56 14 -123 26 -162 l22 -68 55 46 c76 62 126 92 205 124 196 81 416
82 612 3 80 -32 117 -54 199 -120 l67 -53 23 72 c35 110 32 273 -5 383 -103
298 -413 475 -717 409z"/>
<path d="M2247 6450 c-55 -10 -157 -41 -157 -47 0 -3 22 -30 50 -60 62 -70
134 -213 160 -318 23 -92 28 -238 10 -336 -23 -126 -84 -255 -171 -359 l-48
-58 37 -15 c115 -46 304 -48 423 -5 100 37 157 74 235 153 323 326 190 872
-248 1021 -81 28 -211 39 -291 24z"/>
<path d="M1378 5626 c-331 -95 -523 -409 -453 -740 62 -293 354 -509 652 -482
67 6 203 40 203 51 0 3 -23 33 -51 67 -59 73 -130 214 -155 308 -25 91 -25
292 0 380 34 126 98 248 172 330 22 24 33 44 28 49 -43 41 -299 65 -396 37z"/>
<path d="M1765 5236 c-57 -135 -48 -337 21 -483 97 -204 328 -352 552 -353 70
0 192 26 258 55 246 109 402 382 365 640 -11 74 -40 175 -50 175 -4 0 -29 -18
-56 -41 -234 -193 -546 -238 -825 -120 -76 33 -171 94 -209 135 -32 34 -39 33
-56 -8z"/>
<path d="M1140 3956 c-106 -22 -191 -91 -236 -191 -68 -150 -49 -357 44 -479
24 -33 59 -62 102 -85 64 -36 66 -36 185 -36 118 0 121 1 183 34 102 55 150
128 179 268 13 64 14 92 5 161 -25 186 -124 301 -287 331 -71 13 -104 13 -175
-3z m172 -80 c70 -21 114 -60 150 -134 32 -64 33 -72 33 -182 0 -98 -4 -123
-23 -166 -45 -101 -130 -156 -237 -156 -107 0 -191 55 -237 156 -19 44 -23 68
-23 166 0 110 1 118 33 182 60 122 175 173 304 134z"/>
<path d="M1980 3964 c-146 -28 -237 -128 -215 -235 19 -91 80 -138 256 -200
134 -47 172 -69 194 -115 43 -92 -38 -175 -173 -176 -85 0 -133 13 -201 56
-59 37 -78 37 -87 -1 -9 -33 15 -56 95 -96 62 -30 71 -32 181 -32 108 0 119 2
175 30 85 42 120 95 120 179 0 116 -56 168 -246 229 -163 53 -205 82 -216 150
-5 33 -1 41 33 76 75 74 209 77 316 5 28 -19 58 -34 66 -32 24 5 39 35 26 55
-16 26 -101 81 -142 93 -45 12 -148 20 -182 14z"/>
<path d="M2673 3960 c-173 -36 -252 -185 -164 -307 34 -47 100 -83 222 -123
120 -40 172 -70 193 -114 21 -44 20 -64 -4 -103 -29 -48 -88 -74 -168 -75 -85
0 -133 13 -201 56 -59 37 -78 37 -87 -1 -9 -33 15 -56 95 -96 62 -30 71 -32
181 -32 108 0 119 2 175 30 85 42 120 95 120 179 0 116 -54 166 -250 231 -60
20 -121 43 -135 50 -40 21 -70 59 -77 98 -5 33 -1 41 33 76 75 74 209 77 316
5 28 -19 58 -34 66 -32 24 5 39 35 26 55 -16 26 -101 81 -142 93 -56 15 -152
20 -199 10z"/>
<path d="M84 3952 c-31 -20 -34 -54 -34 -397 0 -220 4 -353 10 -366 16 -30 68
-26 80 7 6 14 10 154 10 325 l0 300 201 -303 c111 -167 211 -313 222 -325 26
-29 70 -30 97 -3 19 19 20 33 20 383 0 269 -3 366 -12 375 -16 16 -53 15 -67
-1 -7 -9 -12 -118 -13 -333 l-3 -319 -216 326 c-119 179 -224 329 -233 332
-23 9 -48 9 -62 -1z"/>
<path d="M3408 3937 c-29 -33 -309 -721 -302 -741 7 -18 46 -31 67 -23 7 3 28
45 47 93 18 49 38 95 43 102 7 9 60 12 202 12 l192 0 32 -82 c18 -46 39 -93
47 -105 24 -38 84 -25 84 17 0 17 -253 638 -284 698 -29 56 -91 70 -128 29z
m139 -274 l82 -208 -85 -3 c-46 -1 -122 -1 -168 0 l-83 3 81 207 c44 115 84
208 87 208 3 0 42 -93 86 -207z"/>
<path d="M1863 3000 c-101 -24 -163 -110 -163 -228 0 -155 102 -255 243 -238
121 14 187 97 187 235 0 129 -53 206 -160 230 -51 12 -62 12 -107 1z m120 -55
c65 -31 103 -129 86 -220 -19 -101 -67 -145 -158 -145 -48 0 -57 3 -91 38 -46
45 -64 105 -57 180 13 126 118 196 220 147z"/>
<path d="M3135 3001 c-86 -22 -136 -76 -156 -169 -28 -135 34 -263 143 -293
80 -21 198 9 198 51 0 24 -5 24 -60 5 -61 -21 -111 -19 -150 8 -54 36 -75 81
-75 162 1 153 76 212 233 181 38 -8 42 -7 42 12 0 14 -10 23 -32 31 -50 15
-110 20 -143 12z"/>
<path d="M56 2984 c-8 -20 -8 -408 0 -428 5 -13 25 -16 115 -16 122 0 163 11
197 55 43 55 19 145 -46 172 -34 14 -35 16 -16 23 56 21 83 109 48 158 -29 42
-65 52 -182 52 -91 0 -111 -3 -116 -16z m233 -48 c29 -26 29 -86 0 -112 -16
-14 -40 -20 -100 -23 l-79 -3 0 82 0 82 79 -3 c60 -3 84 -9 100 -23z m9 -203
c28 -21 38 -57 27 -100 -8 -34 -60 -53 -145 -53 l-70 0 0 91 0 92 80 -5 c60
-4 88 -10 108 -25z"/>
<path d="M514 2987 c-2 -7 -3 -109 -2 -227 l3 -215 25 0 25 0 3 205 c1 113 0
215 -3 228 -6 24 -42 31 -51 9z"/>
<path d="M704 2987 c-2 -7 -3 -109 -2 -227 l3 -215 112 -3 c127 -3 170 9 200
54 27 42 24 106 -7 139 -14 15 -36 32 -50 37 l-25 10 27 14 c30 16 58 61 58
94 0 34 -31 78 -66 95 -42 20 -242 22 -250 2z m211 -41 c37 -16 52 -48 41 -91
-9 -37 -54 -55 -136 -55 l-70 0 0 73 c0 41 3 77 7 80 12 13 123 7 158 -7z m-3
-196 c68 -19 89 -85 44 -137 -23 -26 -28 -27 -112 -28 l-89 0 -3 74 c-2 41 -1
80 2 88 7 16 103 18 158 3z"/>
<path d="M1155 2988 c-3 -7 -4 -110 -3 -228 l3 -215 143 -3 c137 -2 142 -2
142 18 0 19 -6 20 -115 20 l-115 0 -2 208 c-3 206 -3 207 -26 210 -12 2 -24
-3 -27 -10z"/>
<path d="M1535 2988 c-3 -7 -4 -110 -3 -228 l3 -215 25 0 25 0 0 225 0 225
-23 3 c-12 2 -24 -3 -27 -10z"/>
<path d="M2154 2989 c-12 -20 10 -28 81 -31 l70 -3 5 -205 c5 -197 6 -205 25
-205 19 0 20 8 25 205 l5 205 73 3 c64 3 72 5 72 22 0 19 -8 20 -174 20 -115
0 -177 -4 -182 -11z"/>
<path d="M2594 2987 c-2 -7 -3 -109 -2 -227 l3 -215 145 0 c129 0 145 2 148
17 3 16 -10 18 -120 20 l-123 3 -3 83 -3 82 103 0 c108 0 135 8 125 34 -5 13
-25 16 -117 16 l-111 0 3 78 3 77 118 3 c109 2 117 4 117 22 0 19 -7 20 -140
20 -105 0 -142 -3 -146 -13z"/>
<path d="M3578 2983 c-23 -27 -181 -421 -173 -432 3 -6 15 -11 25 -11 14 0 25
16 41 60 l22 60 117 0 118 0 22 -60 c17 -45 27 -60 42 -60 10 0 21 7 24 15 5
13 -121 336 -162 418 -17 32 -53 36 -76 10z m128 -280 c-2 -2 -46 -2 -98 -1
l-95 3 32 85 c18 47 40 103 50 125 l17 40 49 -124 c26 -69 47 -126 45 -128z"/>
</g>
</svg>
